<svg xmlns="http://www.w3.org/2000/svg" width="520" height="360" viewBox="0 0 520 360"><rect width="100%" height="100%" fill="white"/><g fill="#101820" stroke="#6e4ccf" stroke-width="5"><path d="M120 220c-20-85 5-185 38-178 12 2 12 35 10 98l20-95c4-18 31-15 31 4l-3 96 23-102c5-20 34-14 30 8l-14 104 25-75c7-20 34-10 29 10l-36 133 31-33c16-17 38 3 24 22l-62 79H145z"/><path d="M318 232c-6-75 17-173 48-164 12 4 10 34 4 88l22-78c6-18 31-12 28 7l-10 79 25-75c7-20 35-11 29 11l-25 83 30-42c12-17 36-4 28 16l-53 105-100 28z"/></g><path d="M144 275h118M342 278h92" stroke="#6e4ccf" stroke-width="10"/></svg>
